<svg width="140" height="140" viewBox="0 0 140 140" fill="none" xmlns="http://www.w3.org/2000/svg">
<g clip-path="url(#clip0_3_79)">
<path d="M140 70C140 31.3401 108.66 0 70 0C31.3401 0 0 31.3401 0 70C0 108.66 31.3401 140 70 140C108.66 140 140 108.66 140 70Z" fill="black"/>
<path d="M70.4858 19C42.0578 19 18.9065 41.2486 18 69.0307C23.5604 65.8535 29.5036 62.4755 32.7065 60.4931C38.9084 56.653 41.4775 53.3373 45.0207 50.5448C48.5651 47.7523 54.2356 45.8333 62.8287 45.3971C70.8371 44.9899 78.7582 50.0151 79.8 50.7016C79.8807 50.7543 79.9658 50.7919 80.0596 50.8145C80.7371 50.9799 83.6836 51.6665 86.4349 51.7933C97.3244 52.2478 101.345 56.1599 102.73 58.2615C103.055 58.7547 102.769 59.424 102.179 59.5186C102.17 59.5207 102.16 59.5218 102.151 59.524C101.998 59.5497 101.849 59.6121 101.732 59.712C99.8367 61.3011 86.1687 65.3163 84.8335 67.1568C83.7065 68.7094 82.1193 69.2628 81.5836 69.411C81.4549 69.4465 81.3393 69.5099 81.2411 69.5991C80.6465 70.1417 78.4876 72.1724 76.7291 74.5974C74.964 77.0321 73.5 77.8766 73.1182 78.069C73.0473 78.1044 72.9818 78.1517 72.9229 78.2065L70.4629 80.5198C70.188 80.7787 70.1247 81.187 70.3113 81.5136C71.0858 82.8739 73.2033 86.4099 75.4931 88.6663C77.9258 91.0623 78.7953 95.864 79.008 97.3091C79.0396 97.524 78.9818 97.7389 78.8509 97.9151C78.456 98.4491 77.6858 100.509 78.1025 108.416C78.4189 114.404 77.9629 118.871 77.388 122C103.128 118.671 123 96.9825 123 70.7219C123 42.1565 99.4887 19 70.4858 19Z" fill="white"/>
</g>
<defs>
<clipPath id="clip0_3_79">
<rect width="140" height="140" fill="white"/>
</clipPath>
</defs>
</svg>
