<svg width="141" height="140" viewBox="0 0 141 140" fill="none" xmlns="http://www.w3.org/2000/svg">
<path d="M70.481 0C32.3062 0 1.21736 29.8088 0 67.0314C7.46677 62.7746 15.4477 58.2487 19.7488 55.5927C28.0769 50.4477 31.5269 46.0053 36.285 42.2639C41.0445 38.5225 48.6593 35.9514 60.1986 35.367C70.9527 34.8214 81.5896 41.5542 82.9886 42.474C83.097 42.5446 83.2112 42.595 83.3372 42.6252C84.247 42.8469 88.2037 43.7668 91.8983 43.9366C106.521 44.5456 111.921 49.787 113.78 52.6028C114.217 53.2635 113.833 54.1604 113.04 54.287C113.029 54.2899 113.015 54.2914 113.002 54.2942C112.797 54.3288 112.598 54.4123 112.44 54.5462C109.895 56.6753 91.5409 62.0549 89.7478 64.5208C88.2345 66.601 86.103 67.3424 85.3837 67.541C85.2109 67.5885 85.0556 67.6734 84.9238 67.7929C84.1254 68.5199 81.2263 71.2407 78.8648 74.4897C76.4945 77.7518 74.5286 78.8833 74.0158 79.1409C73.9206 79.1884 73.8327 79.2518 73.7536 79.3252L70.4502 82.4246C70.081 82.7715 69.9961 83.3185 70.2466 83.7561C71.2867 85.5786 74.1301 90.3162 77.205 93.3393C80.4718 96.5495 81.6394 102.983 81.925 104.919C81.9675 105.207 81.8899 105.495 81.7141 105.731C81.1838 106.446 80.1495 109.206 80.7091 119.8C81.134 127.822 80.5216 133.808 79.7496 138C114.315 133.54 141 104.481 141 69.2973C141 31.0253 109.428 0 70.481 0Z" fill="black"/>
</svg>
